<svg xmlns="http://www.w3.org/2000/svg" xmlns:xlink="http://www.w3.org/1999/xlink" width="500" zoomAndPan="magnify" viewBox="0 0 375 374.999991" height="500" preserveAspectRatio="xMidYMid meet" version="1.0"><defs><g/><clipPath id="91b2902a19"><path d="M 114.613281 73.308594 L 260.113281 73.308594 L 260.113281 218.808594 L 114.613281 218.808594 Z M 114.613281 73.308594 " clip-rule="nonzero"/></clipPath></defs><g clip-path="url(#91b2902a19)"><path fill="#ffffff" d="M 241.34375 87.886719 L 231.230469 87.886719 L 231.230469 78.167969 C 231.230469 77.847656 231.199219 77.53125 231.136719 77.21875 C 231.074219 76.90625 230.984375 76.601562 230.859375 76.308594 C 230.738281 76.011719 230.589844 75.734375 230.410156 75.46875 C 230.234375 75.203125 230.03125 74.957031 229.808594 74.730469 C 229.582031 74.503906 229.335938 74.304688 229.070312 74.128906 C 228.804688 73.949219 228.527344 73.800781 228.230469 73.679688 C 227.9375 73.554688 227.632812 73.464844 227.320312 73.402344 C 227.007812 73.339844 226.691406 73.308594 226.371094 73.308594 C 226.050781 73.308594 225.734375 73.339844 225.421875 73.402344 C 225.109375 73.464844 224.804688 73.554688 224.511719 73.679688 C 224.21875 73.800781 223.9375 73.949219 223.671875 74.128906 C 223.40625 74.304688 223.160156 74.503906 222.933594 74.730469 C 222.710938 74.957031 222.507812 75.203125 222.332031 75.46875 C 222.152344 75.734375 222.003906 76.011719 221.882812 76.308594 C 221.761719 76.601562 221.667969 76.90625 221.605469 77.21875 C 221.542969 77.53125 221.511719 77.847656 221.511719 78.167969 L 221.511719 87.886719 L 192.359375 87.886719 L 192.359375 78.167969 C 192.359375 77.847656 192.328125 77.53125 192.265625 77.21875 C 192.203125 76.90625 192.109375 76.601562 191.988281 76.308594 C 191.867188 76.011719 191.714844 75.734375 191.539062 75.46875 C 191.363281 75.203125 191.160156 74.957031 190.933594 74.730469 C 190.710938 74.503906 190.464844 74.304688 190.199219 74.128906 C 189.933594 73.949219 189.652344 73.800781 189.359375 73.679688 C 189.0625 73.554688 188.761719 73.464844 188.449219 73.402344 C 188.132812 73.339844 187.820312 73.308594 187.5 73.308594 C 187.179688 73.308594 186.863281 73.339844 186.550781 73.402344 C 186.238281 73.464844 185.933594 73.554688 185.640625 73.679688 C 185.34375 73.800781 185.066406 73.949219 184.800781 74.128906 C 184.535156 74.304688 184.289062 74.503906 184.0625 74.730469 C 183.839844 74.957031 183.636719 75.203125 183.460938 75.46875 C 183.28125 75.734375 183.132812 76.011719 183.011719 76.308594 C 182.886719 76.601562 182.796875 76.90625 182.734375 77.21875 C 182.671875 77.53125 182.640625 77.847656 182.640625 78.167969 L 182.640625 87.886719 L 153.488281 87.886719 L 153.488281 78.167969 C 153.488281 77.847656 153.457031 77.53125 153.394531 77.21875 C 153.332031 76.90625 153.238281 76.601562 153.117188 76.308594 C 152.996094 76.011719 152.84375 75.734375 152.667969 75.46875 C 152.492188 75.203125 152.289062 74.957031 152.0625 74.730469 C 151.835938 74.503906 151.59375 74.304688 151.328125 74.128906 C 151.0625 73.949219 150.78125 73.800781 150.488281 73.679688 C 150.191406 73.554688 149.886719 73.464844 149.574219 73.402344 C 149.261719 73.339844 148.945312 73.308594 148.628906 73.308594 C 148.308594 73.308594 147.992188 73.339844 147.679688 73.402344 C 147.367188 73.464844 147.0625 73.554688 146.769531 73.679688 C 146.472656 73.800781 146.191406 73.949219 145.929688 74.128906 C 145.664062 74.304688 145.417969 74.503906 145.191406 74.730469 C 144.964844 74.957031 144.765625 75.203125 144.585938 75.46875 C 144.410156 75.734375 144.261719 76.011719 144.136719 76.308594 C 144.015625 76.601562 143.925781 76.90625 143.863281 77.21875 C 143.800781 77.53125 143.769531 77.847656 143.769531 78.167969 L 143.769531 87.886719 L 133.65625 87.886719 C 133.035156 87.886719 132.410156 87.917969 131.792969 87.980469 C 131.171875 88.039062 130.554688 88.132812 129.945312 88.253906 C 129.332031 88.375 128.726562 88.527344 128.132812 88.710938 C 127.535156 88.890625 126.949219 89.101562 126.371094 89.339844 C 125.796875 89.578125 125.234375 89.84375 124.683594 90.140625 C 124.132812 90.433594 123.601562 90.753906 123.082031 91.101562 C 122.5625 91.445312 122.0625 91.816406 121.582031 92.214844 C 121.101562 92.609375 120.636719 93.027344 120.199219 93.46875 C 119.757812 93.910156 119.339844 94.371094 118.941406 94.851562 C 118.546875 95.335938 118.175781 95.835938 117.828125 96.351562 C 117.484375 96.871094 117.164062 97.40625 116.867188 97.953125 C 116.574219 98.503906 116.308594 99.066406 116.070312 99.644531 C 115.832031 100.21875 115.621094 100.804688 115.4375 101.402344 C 115.257812 102 115.105469 102.601562 114.984375 103.214844 C 114.863281 103.824219 114.769531 104.441406 114.707031 105.0625 C 114.644531 105.683594 114.617188 106.304688 114.613281 106.925781 L 114.613281 112.179688 C 114.613281 112.5 114.644531 112.816406 114.707031 113.128906 C 114.769531 113.441406 114.863281 113.746094 114.984375 114.039062 C 115.105469 114.335938 115.257812 114.613281 115.433594 114.878906 C 115.609375 115.144531 115.8125 115.390625 116.039062 115.617188 C 116.261719 115.839844 116.507812 116.042969 116.773438 116.21875 C 117.039062 116.398438 117.320312 116.546875 117.613281 116.667969 C 117.910156 116.792969 118.210938 116.882812 118.527344 116.945312 C 118.839844 117.007812 119.15625 117.039062 119.472656 117.039062 C 119.792969 117.039062 120.109375 117.007812 120.421875 116.945312 C 120.734375 116.882812 121.039062 116.792969 121.332031 116.667969 C 121.628906 116.546875 121.90625 116.398438 122.171875 116.21875 C 122.4375 116.042969 122.683594 115.839844 122.910156 115.617188 C 123.136719 115.390625 123.335938 115.144531 123.515625 114.878906 C 123.691406 114.613281 123.839844 114.335938 123.960938 114.039062 C 124.085938 113.746094 124.175781 113.441406 124.238281 113.128906 C 124.300781 112.816406 124.332031 112.5 124.332031 112.179688 L 124.332031 106.925781 C 124.332031 106.316406 124.394531 105.710938 124.511719 105.109375 C 124.632812 104.507812 124.808594 103.925781 125.046875 103.359375 C 125.28125 102.796875 125.566406 102.257812 125.90625 101.75 C 126.246094 101.242188 126.632812 100.769531 127.066406 100.335938 C 127.5 99.902344 127.96875 99.519531 128.480469 99.175781 C 128.988281 98.835938 129.523438 98.550781 130.089844 98.316406 C 130.65625 98.082031 131.238281 97.902344 131.839844 97.785156 C 132.4375 97.664062 133.046875 97.605469 133.65625 97.601562 L 143.769531 97.601562 L 143.769531 102.460938 C 143.769531 102.78125 143.800781 103.097656 143.863281 103.410156 C 143.925781 103.722656 144.015625 104.027344 144.136719 104.320312 C 144.261719 104.617188 144.410156 104.894531 144.585938 105.160156 C 144.765625 105.425781 144.964844 105.671875 145.191406 105.898438 C 145.417969 106.125 145.664062 106.324219 145.929688 106.503906 C 146.191406 106.679688 146.472656 106.828125 146.769531 106.953125 C 147.0625 107.074219 147.367188 107.164062 147.679688 107.226562 C 147.992188 107.289062 148.308594 107.320312 148.628906 107.320312 C 148.945312 107.320312 149.261719 107.289062 149.574219 107.226562 C 149.886719 107.164062 150.191406 107.074219 150.488281 106.953125 C 150.78125 106.828125 151.0625 106.679688 151.328125 106.503906 C 151.59375 106.324219 151.835938 106.125 152.0625 105.898438 C 152.289062 105.671875 152.492188 105.425781 152.667969 105.160156 C 152.84375 104.894531 152.996094 104.617188 153.117188 104.320312 C 153.238281 104.027344 153.332031 103.722656 153.394531 103.410156 C 153.457031 103.097656 153.488281 102.78125 153.488281 102.460938 L 153.488281 97.601562 L 182.640625 97.601562 L 182.640625 102.460938 C 182.640625 102.78125 182.671875 103.097656 182.734375 103.410156 C 182.796875 103.722656 182.886719 104.027344 183.011719 104.320312 C 183.132812 104.617188 183.28125 104.894531 183.460938 105.160156 C 183.636719 105.425781 183.839844 105.671875 184.0625 105.898438 C 184.289062 106.125 184.535156 106.324219 184.800781 106.503906 C 185.066406 106.679688 185.34375 106.828125 185.640625 106.953125 C 185.933594 107.074219 186.238281 107.164062 186.550781 107.226562 C 186.863281 107.289062 187.179688 107.320312 187.5 107.320312 C 187.820312 107.320312 188.132812 107.289062 188.449219 107.226562 C 188.761719 107.164062 189.0625 107.074219 189.359375 106.953125 C 189.652344 106.828125 189.933594 106.679688 190.199219 106.503906 C 190.464844 106.324219 190.710938 106.125 190.933594 105.898438 C 191.160156 105.671875 191.363281 105.425781 191.539062 105.160156 C 191.714844 104.894531 191.867188 104.617188 191.988281 104.320312 C 192.109375 104.027344 192.203125 103.722656 192.265625 103.410156 C 192.328125 103.097656 192.359375 102.78125 192.359375 102.460938 L 192.359375 97.601562 L 221.511719 97.601562 L 221.511719 102.460938 C 221.511719 102.78125 221.542969 103.097656 221.605469 103.410156 C 221.667969 103.722656 221.761719 104.027344 221.882812 104.320312 C 222.003906 104.617188 222.152344 104.894531 222.332031 105.160156 C 222.507812 105.425781 222.710938 105.671875 222.933594 105.898438 C 223.160156 106.125 223.40625 106.324219 223.671875 106.503906 C 223.9375 106.679688 224.21875 106.828125 224.511719 106.953125 C 224.804688 107.074219 225.109375 107.164062 225.421875 107.226562 C 225.734375 107.289062 226.050781 107.320312 226.371094 107.320312 C 226.691406 107.320312 227.007812 107.289062 227.320312 107.226562 C 227.632812 107.164062 227.9375 107.074219 228.230469 106.953125 C 228.527344 106.828125 228.804688 106.679688 229.070312 106.503906 C 229.335938 106.324219 229.582031 106.125 229.808594 105.898438 C 230.03125 105.671875 230.234375 105.425781 230.410156 105.160156 C 230.589844 104.894531 230.738281 104.617188 230.859375 104.320312 C 230.984375 104.027344 231.074219 103.722656 231.136719 103.410156 C 231.199219 103.097656 231.230469 102.78125 231.230469 102.460938 L 231.230469 97.601562 L 241.34375 97.601562 C 241.953125 97.605469 242.558594 97.664062 243.160156 97.785156 C 243.761719 97.902344 244.34375 98.082031 244.910156 98.316406 C 245.472656 98.550781 246.011719 98.835938 246.519531 99.175781 C 247.027344 99.519531 247.5 99.902344 247.933594 100.335938 C 248.363281 100.769531 248.75 101.242188 249.09375 101.75 C 249.433594 102.257812 249.71875 102.796875 249.953125 103.359375 C 250.1875 103.925781 250.367188 104.507812 250.484375 105.109375 C 250.605469 105.710938 250.664062 106.316406 250.667969 106.925781 L 250.667969 200.03125 C 250.664062 200.644531 250.605469 201.25 250.484375 201.847656 C 250.367188 202.449219 250.1875 203.03125 249.953125 203.597656 C 249.71875 204.164062 249.433594 204.699219 249.09375 205.210938 C 248.75 205.71875 248.367188 206.191406 247.933594 206.621094 C 247.5 207.054688 247.027344 207.441406 246.519531 207.78125 C 246.011719 208.125 245.472656 208.410156 244.910156 208.644531 C 244.34375 208.878906 243.761719 209.058594 243.160156 209.179688 C 242.558594 209.296875 241.953125 209.359375 241.34375 209.359375 L 133.65625 209.359375 C 133.042969 209.359375 132.4375 209.296875 131.839844 209.179688 C 131.238281 209.058594 130.65625 208.878906 130.089844 208.644531 C 129.523438 208.410156 128.988281 208.125 128.480469 207.78125 C 127.96875 207.441406 127.5 207.054688 127.066406 206.621094 C 126.632812 206.191406 126.246094 205.71875 125.90625 205.210938 C 125.566406 204.699219 125.28125 204.164062 125.042969 203.597656 C 124.808594 203.03125 124.632812 202.449219 124.511719 201.847656 C 124.394531 201.25 124.332031 200.644531 124.332031 200.03125 L 124.332031 136.476562 C 124.332031 136.15625 124.300781 135.839844 124.238281 135.527344 C 124.175781 135.214844 124.085938 134.910156 123.960938 134.617188 C 123.839844 134.320312 123.691406 134.039062 123.515625 133.777344 C 123.335938 133.511719 123.136719 133.265625 122.910156 133.039062 C 122.683594 132.8125 122.4375 132.613281 122.171875 132.433594 C 121.90625 132.257812 121.628906 132.109375 121.332031 131.984375 C 121.039062 131.863281 120.734375 131.773438 120.421875 131.710938 C 120.109375 131.648438 119.792969 131.617188 119.472656 131.617188 C 119.15625 131.617188 118.839844 131.648438 118.527344 131.710938 C 118.210938 131.773438 117.910156 131.863281 117.613281 131.984375 C 117.320312 132.109375 117.039062 132.257812 116.773438 132.433594 C 116.507812 132.613281 116.261719 132.8125 116.039062 133.039062 C 115.8125 133.265625 115.609375 133.511719 115.433594 133.777344 C 115.257812 134.039062 115.105469 134.320312 114.984375 134.617188 C 114.863281 134.910156 114.769531 135.214844 114.707031 135.527344 C 114.644531 135.839844 114.613281 136.15625 114.613281 136.476562 L 114.613281 200.03125 C 114.617188 200.652344 114.644531 201.277344 114.707031 201.898438 C 114.769531 202.515625 114.863281 203.132812 114.984375 203.746094 C 115.105469 204.355469 115.257812 204.960938 115.4375 205.558594 C 115.621094 206.152344 115.832031 206.738281 116.070312 207.316406 C 116.308594 207.890625 116.574219 208.453125 116.867188 209.003906 C 117.164062 209.554688 117.484375 210.089844 117.828125 210.605469 C 118.175781 211.125 118.546875 211.625 118.941406 212.105469 C 119.339844 212.589844 119.757812 213.050781 120.199219 213.492188 C 120.636719 213.933594 121.101562 214.351562 121.582031 214.746094 C 122.0625 215.140625 122.5625 215.511719 123.082031 215.859375 C 123.601562 216.207031 124.132812 216.527344 124.683594 216.820312 C 125.234375 217.117188 125.796875 217.382812 126.371094 217.621094 C 126.949219 217.859375 127.535156 218.070312 128.132812 218.253906 C 128.726562 218.433594 129.332031 218.585938 129.941406 218.707031 C 130.554688 218.828125 131.171875 218.921875 131.789062 218.984375 C 132.410156 219.046875 133.035156 219.078125 133.65625 219.078125 L 241.34375 219.078125 C 241.964844 219.078125 242.585938 219.046875 243.207031 218.984375 C 243.828125 218.921875 244.445312 218.828125 245.054688 218.707031 C 245.667969 218.585938 246.269531 218.433594 246.867188 218.253906 C 247.464844 218.070312 248.050781 217.859375 248.625 217.621094 C 249.203125 217.382812 249.765625 217.117188 250.316406 216.820312 C 250.863281 216.527344 251.398438 216.207031 251.917969 215.859375 C 252.433594 215.511719 252.933594 215.140625 253.417969 214.746094 C 253.898438 214.351562 254.359375 213.933594 254.800781 213.492188 C 255.242188 213.050781 255.660156 212.589844 256.054688 212.105469 C 256.453125 211.625 256.824219 211.125 257.167969 210.605469 C 257.515625 210.089844 257.835938 209.554688 258.128906 209.003906 C 258.425781 208.453125 258.691406 207.890625 258.929688 207.316406 C 259.167969 206.738281 259.378906 206.152344 259.558594 205.558594 C 259.742188 204.960938 259.894531 204.355469 260.015625 203.746094 C 260.136719 203.132812 260.230469 202.515625 260.289062 201.898438 C 260.351562 201.277344 260.382812 200.652344 260.382812 200.03125 L 260.382812 106.925781 C 260.382812 106.304688 260.351562 105.683594 260.289062 105.0625 C 260.230469 104.441406 260.136719 103.824219 260.015625 103.214844 C 259.894531 102.601562 259.742188 102 259.558594 101.402344 C 259.378906 100.804688 259.167969 100.21875 258.929688 99.644531 C 258.691406 99.066406 258.425781 98.503906 258.128906 97.953125 C 257.835938 97.40625 257.515625 96.871094 257.167969 96.351562 C 256.824219 95.835938 256.453125 95.335938 256.054688 94.851562 C 255.660156 94.371094 255.242188 93.910156 254.800781 93.46875 C 254.359375 93.027344 253.898438 92.609375 253.417969 92.214844 C 252.933594 91.816406 252.433594 91.445312 251.917969 91.101562 C 251.398438 90.753906 250.863281 90.433594 250.316406 90.140625 C 249.765625 89.84375 249.203125 89.578125 248.625 89.339844 C 248.050781 89.101562 247.464844 88.890625 246.867188 88.710938 C 246.269531 88.527344 245.667969 88.375 245.054688 88.253906 C 244.445312 88.132812 243.828125 88.039062 243.207031 87.980469 C 242.585938 87.917969 241.964844 87.886719 241.34375 87.886719 Z M 241.34375 87.886719 " fill-opacity="1" fill-rule="nonzero"/></g><path fill="#ffffff" d="M 179.398438 178.585938 C 180.042969 178.589844 180.664062 178.464844 181.261719 178.21875 C 181.859375 177.972656 182.382812 177.621094 182.839844 177.164062 L 215.230469 144.769531 C 215.449219 144.542969 215.644531 144.296875 215.816406 144.03125 C 215.988281 143.765625 216.128906 143.488281 216.246094 143.195312 C 216.363281 142.902344 216.453125 142.601562 216.511719 142.289062 C 216.570312 141.980469 216.597656 141.667969 216.59375 141.351562 C 216.589844 141.035156 216.558594 140.722656 216.492188 140.414062 C 216.429688 140.105469 216.335938 139.804688 216.214844 139.515625 C 216.09375 139.222656 215.945312 138.949219 215.769531 138.683594 C 215.59375 138.421875 215.394531 138.179688 215.171875 137.957031 C 214.949219 137.734375 214.703125 137.535156 214.441406 137.359375 C 214.179688 137.183594 213.90625 137.035156 213.613281 136.914062 C 213.324219 136.789062 213.023438 136.699219 212.714844 136.632812 C 212.40625 136.570312 212.09375 136.539062 211.777344 136.535156 C 211.460938 136.53125 211.148438 136.558594 210.839844 136.617188 C 210.527344 136.675781 210.226562 136.765625 209.933594 136.878906 C 209.640625 136.996094 209.363281 137.140625 209.097656 137.3125 C 208.832031 137.484375 208.585938 137.679688 208.359375 137.898438 L 179.398438 166.859375 L 166.640625 154.09375 C 166.414062 153.863281 166.171875 153.652344 165.90625 153.472656 C 165.640625 153.289062 165.359375 153.132812 165.0625 153.003906 C 164.765625 152.878906 164.460938 152.78125 164.144531 152.714844 C 163.828125 152.648438 163.507812 152.613281 163.1875 152.609375 C 162.863281 152.609375 162.542969 152.636719 162.226562 152.699219 C 161.910156 152.757812 161.601562 152.851562 161.304688 152.972656 C 161.007812 153.09375 160.722656 153.246094 160.453125 153.421875 C 160.183594 153.601562 159.9375 153.804688 159.707031 154.035156 C 159.480469 154.261719 159.277344 154.511719 159.097656 154.777344 C 158.921875 155.046875 158.769531 155.332031 158.648438 155.628906 C 158.527344 155.929688 158.433594 156.234375 158.371094 156.550781 C 158.3125 156.871094 158.28125 157.1875 158.285156 157.511719 C 158.289062 157.835938 158.324219 158.152344 158.390625 158.46875 C 158.457031 158.785156 158.554688 159.089844 158.679688 159.386719 C 158.808594 159.683594 158.964844 159.964844 159.144531 160.230469 C 159.328125 160.496094 159.539062 160.742188 159.769531 160.964844 L 175.964844 177.164062 C 176.417969 177.621094 176.945312 177.972656 177.539062 178.21875 C 178.136719 178.464844 178.753906 178.585938 179.398438 178.585938 Z M 179.398438 178.585938 " fill-opacity="1" fill-rule="nonzero"/><g fill="#ffffff" fill-opacity="1"><g transform="translate(41.522034, 286.524795)"><g><path d="M 3.359375 -45.359375 L 18.59375 -45.359375 C 22.582031 -45.359375 25.566406 -44.226562 27.546875 -41.96875 C 29.523438 -39.707031 30.515625 -36.453125 30.515625 -32.203125 C 30.515625 -27.347656 29.363281 -23.976562 27.0625 -22.09375 C 24.769531 -20.207031 21.554688 -19.265625 17.421875 -19.265625 L 13.390625 -19.265625 L 13.390625 0 L 3.359375 0 Z M 16.75 -26.265625 C 18.5 -26.265625 19.660156 -26.726562 20.234375 -27.65625 C 20.816406 -28.59375 21.109375 -30.164062 21.109375 -32.375 C 21.109375 -34.382812 20.828125 -35.875 20.265625 -36.84375 C 19.710938 -37.8125 18.519531 -38.296875 16.6875 -38.296875 L 13.390625 -38.296875 L 13.390625 -26.265625 Z M 16.75 -26.265625 "/></g></g></g><g fill="#ffffff" fill-opacity="1"><g transform="translate(72.373573, 286.524795)"><g><path d="M 3.25 -45.359375 L 12.3125 -45.359375 L 12.3125 0 L 3.25 0 Z M 3.25 -45.359375 "/></g></g></g><g fill="#ffffff" fill-opacity="1"><g transform="translate(86.595428, 286.524795)"><g><path d="M 9.515625 0.5625 C 7.953125 0.5625 6.597656 0.179688 5.453125 -0.578125 C 4.316406 -1.347656 3.457031 -2.335938 2.875 -3.546875 C 2.300781 -4.765625 2.015625 -6.03125 2.015625 -7.34375 C 2.015625 -9.84375 2.648438 -11.894531 3.921875 -13.5 C 5.191406 -15.101562 6.710938 -16.351562 8.484375 -17.25 C 10.253906 -18.144531 12.539062 -19.078125 15.34375 -20.046875 L 15.34375 -23.296875 C 15.34375 -24.234375 15.203125 -24.941406 14.921875 -25.421875 C 14.640625 -25.910156 14.144531 -26.15625 13.4375 -26.15625 C 12.726562 -26.15625 12.222656 -25.929688 11.921875 -25.484375 C 11.628906 -25.035156 11.460938 -24.398438 11.421875 -23.578125 L 11.203125 -21.21875 L 2.6875 -21.5625 C 2.832031 -25.445312 3.859375 -28.3125 5.765625 -30.15625 C 7.671875 -32 10.507812 -32.921875 14.28125 -32.921875 C 17.457031 -32.921875 19.882812 -32.035156 21.5625 -30.265625 C 23.238281 -28.492188 24.078125 -26.132812 24.078125 -23.1875 L 24.078125 -8.0625 C 24.078125 -4.78125 24.265625 -2.09375 24.640625 0 L 16.46875 0 C 16.125 -2.5 15.878906 -4.03125 15.734375 -4.59375 C 15.285156 -3.101562 14.535156 -1.867188 13.484375 -0.890625 C 12.441406 0.078125 11.117188 0.5625 9.515625 0.5625 Z M 12.765625 -5.59375 C 13.703125 -5.59375 14.5625 -6.132812 15.34375 -7.21875 L 15.34375 -16.078125 C 13.664062 -15.097656 12.394531 -14.078125 11.53125 -13.015625 C 10.675781 -11.953125 10.25 -10.65625 10.25 -9.125 C 10.25 -8.039062 10.472656 -7.179688 10.921875 -6.546875 C 11.367188 -5.910156 11.984375 -5.59375 12.765625 -5.59375 Z M 12.765625 -5.59375 "/></g></g></g><g fill="#ffffff" fill-opacity="1"><g transform="translate(112.127704, 286.524795)"><g><path d="M 2.859375 -32.375 L 11.984375 -32.375 L 11.984375 -29.125 C 14.523438 -31.65625 17.117188 -32.921875 19.765625 -32.921875 C 21.710938 -32.921875 23.195312 -32.222656 24.21875 -30.828125 C 25.25 -29.429688 25.765625 -27.613281 25.765625 -25.375 L 25.765625 0 L 16.6875 0 L 16.6875 -24.078125 C 16.6875 -24.898438 16.546875 -25.503906 16.265625 -25.890625 C 15.984375 -26.285156 15.507812 -26.484375 14.84375 -26.484375 C 14.09375 -26.484375 13.140625 -26.09375 11.984375 -25.3125 L 11.984375 0 L 2.859375 0 Z M 2.859375 -32.375 "/></g></g></g><g fill="#ffffff" fill-opacity="1"><g transform="translate(139.395745, 286.524795)"><g/></g></g><g fill="#ffffff" fill-opacity="1"><g transform="translate(152.609746, 286.524795)"><g><path d="M 3.96875 -45.359375 L 14.734375 -45.359375 L 19.71875 -18.984375 L 25.09375 -45.359375 L 35.453125 -45.359375 L 36.234375 0 L 29.125 0 L 28.28125 -30.1875 L 23.015625 0 L 16.6875 0 L 11.09375 -30.40625 L 10.421875 0 L 3.1875 0 Z M 3.96875 -45.359375 "/></g></g></g><g fill="#ffffff" fill-opacity="1"><g transform="translate(190.908243, 286.524795)"><g><path d="M 3.75 3.078125 C 5.539062 3.078125 6.851562 2.878906 7.6875 2.484375 C 8.53125 2.097656 8.953125 1.382812 8.953125 0.34375 C 8.953125 -0.59375 8.5625 -2.40625 7.78125 -5.09375 L 0.171875 -32.375 L 8.734375 -32.375 L 12.828125 -13.65625 L 15.90625 -32.375 L 24.53125 -32.375 L 17.078125 0.78125 C 16.367188 3.957031 15.082031 6.1875 13.21875 7.46875 C 11.351562 8.757812 8.890625 9.40625 5.828125 9.40625 L 3.75 9.40625 Z M 3.75 3.078125 "/></g></g></g><g fill="#ffffff" fill-opacity="1"><g transform="translate(214.872742, 286.524795)"><g/></g></g><g fill="#ffffff" fill-opacity="1"><g transform="translate(228.086742, 286.524795)"><g><path d="M 15.40625 0.671875 C 11.070312 0.671875 7.847656 -0.472656 5.734375 -2.765625 C 3.628906 -5.066406 2.503906 -8.71875 2.359375 -13.71875 L 10.921875 -15.015625 C 10.953125 -12.140625 11.296875 -10.070312 11.953125 -8.8125 C 12.609375 -7.5625 13.585938 -6.9375 14.890625 -6.9375 C 16.578125 -6.9375 17.421875 -8.039062 17.421875 -10.25 C 17.421875 -12 17.019531 -13.507812 16.21875 -14.78125 C 15.414062 -16.050781 14.15625 -17.414062 12.4375 -18.875 L 8.515625 -22.28125 C 6.566406 -23.925781 5.0625 -25.671875 4 -27.515625 C 2.9375 -29.367188 2.40625 -31.566406 2.40625 -34.109375 C 2.40625 -37.910156 3.535156 -40.835938 5.796875 -42.890625 C 8.054688 -44.941406 11.164062 -45.96875 15.125 -45.96875 C 19.414062 -45.96875 22.332031 -44.71875 23.875 -42.21875 C 25.425781 -39.71875 26.257812 -36.675781 26.375 -33.09375 L 17.75 -32.03125 C 17.675781 -34.382812 17.460938 -36.070312 17.109375 -37.09375 C 16.753906 -38.125 15.976562 -38.640625 14.78125 -38.640625 C 13.925781 -38.640625 13.265625 -38.273438 12.796875 -37.546875 C 12.328125 -36.816406 12.09375 -36.003906 12.09375 -35.109375 C 12.09375 -33.578125 12.4375 -32.289062 13.125 -31.25 C 13.820312 -30.207031 14.9375 -29.007812 16.46875 -27.65625 L 20.21875 -24.359375 C 22.457031 -22.453125 24.191406 -20.4375 25.421875 -18.3125 C 26.648438 -16.1875 27.265625 -13.664062 27.265625 -10.75 C 27.265625 -8.625 26.769531 -6.691406 25.78125 -4.953125 C 24.789062 -3.222656 23.398438 -1.851562 21.609375 -0.84375 C 19.816406 0.164062 17.75 0.671875 15.40625 0.671875 Z M 15.40625 0.671875 "/></g></g></g><g fill="#ffffff" fill-opacity="1"><g transform="translate(255.746721, 286.524795)"><g><path d="M 2.90625 -45.359375 L 11.984375 -45.359375 L 11.984375 -29.515625 C 14.265625 -31.785156 16.914062 -32.921875 19.9375 -32.921875 C 21.800781 -32.921875 23.253906 -32.222656 24.296875 -30.828125 C 25.347656 -29.429688 25.875 -27.613281 25.875 -25.375 L 25.875 0 L 16.796875 0 L 16.796875 -24.078125 C 16.796875 -24.898438 16.65625 -25.503906 16.375 -25.890625 C 16.09375 -26.285156 15.617188 -26.484375 14.953125 -26.484375 C 14.171875 -26.484375 13.179688 -26.09375 11.984375 -25.3125 L 11.984375 0 L 2.90625 0 Z M 2.90625 -45.359375 "/></g></g></g><g fill="#ffffff" fill-opacity="1"><g transform="translate(283.126731, 286.524795)"><g><path d="M 2.859375 -44.1875 L 12.046875 -44.1875 L 12.046875 -37.859375 L 2.859375 -37.859375 Z M 2.90625 -32.375 L 12.046875 -32.375 L 12.046875 0 L 2.90625 0 Z M 2.90625 -32.375 "/></g></g></g><g fill="#ffffff" fill-opacity="1"><g transform="translate(296.844649, 286.524795)"><g><path d="M 4.03125 -26.203125 L 0.953125 -26.203125 L 0.953125 -32.375 L 4.03125 -32.375 L 4.03125 -34.78125 C 4.03125 -36.945312 4.234375 -38.691406 4.640625 -40.015625 C 5.054688 -41.335938 5.90625 -42.367188 7.1875 -43.109375 C 8.476562 -43.859375 10.375 -44.234375 12.875 -44.234375 C 14.445312 -44.234375 15.90625 -44.140625 17.25 -43.953125 L 17.25 -37.1875 C 16.425781 -37.375 15.769531 -37.46875 15.28125 -37.46875 C 13.863281 -37.46875 13.15625 -36.625 13.15625 -34.9375 L 13.15625 -32.375 L 17.25 -32.375 L 17.25 -26.203125 L 13.15625 -26.203125 L 13.15625 0 L 4.03125 0 Z M 4.03125 -26.203125 "/></g></g></g><g fill="#ffffff" fill-opacity="1"><g transform="translate(313.642148, 286.524795)"><g><path d="M 12.875 0.34375 C 10.488281 0.34375 8.640625 0 7.328125 -0.6875 C 6.023438 -1.382812 5.113281 -2.382812 4.59375 -3.6875 C 4.070312 -5 3.8125 -6.703125 3.8125 -8.796875 L 3.8125 -26.375 L 0.671875 -26.375 L 0.671875 -32.375 L 3.8125 -32.375 L 3.8125 -42.21875 L 13.046875 -42.21875 L 13.046875 -32.375 L 17.640625 -32.375 L 17.640625 -26.375 L 13.046875 -26.375 L 13.046875 -9.6875 C 13.046875 -8.789062 13.296875 -8.128906 13.796875 -7.703125 C 14.304688 -7.273438 15.007812 -7.0625 15.90625 -7.0625 C 16.65625 -7.0625 17.476562 -7.132812 18.375 -7.28125 L 18.375 -0.109375 C 16.582031 0.191406 14.75 0.34375 12.875 0.34375 Z M 12.875 0.34375 "/></g></g></g></svg>